<svg width="266" height="36" viewBox="0 0 266 36" fill="none" xmlns="http://www.w3.org/2000/svg">
<g clip-path="url(#clip0_1013_3237)">
<path d="M21.4151 0C17.2775 0.000413126 13.233 1.23468 9.79333 3.54662C6.35365 5.85857 3.67335 9.1443 2.09154 12.9881C0.509732 16.8319 0.0974925 21.0611 0.906997 25.1405C1.7165 29.2199 3.71137 32.9663 6.63919 35.9056C8.86648 35.8078 25.1921 34.6747 25.1921 31.5755C25.1921 28.746 9.06104 25.6603 9.06104 22.3891C9.06104 20.6018 16.0515 20.1263 23.2533 20.1263L23.8168 20.5883C20.8683 20.6153 12.8447 20.9053 12.8447 22.0418C12.8447 23.8055 36.2883 26.9452 36.2883 34.2228C36.2894 34.8219 36.223 35.4193 36.0903 36.0034C39.0456 33.0754 41.0679 29.3299 41.9 25.2432C42.732 21.1566 42.3362 16.9134 40.7629 13.0535C39.1895 9.19364 36.5098 5.89146 33.0646 3.56702C29.6193 1.24258 25.5642 0.000926377 21.4151 0Z" fill="#C18862"/>
<path d="M55.736 24.534C56.4506 25.2636 57.3045 25.8408 58.2463 26.2308C59.1881 26.6208 60.1985 26.8156 61.217 26.8036C63.2565 26.8036 64.4674 25.8526 64.4674 24.706C64.479 24.3849 64.4123 24.0659 64.2732 23.7767C64.134 23.4875 63.9266 23.2369 63.669 23.0468C63.1592 22.6308 62.164 22.1182 60.6837 21.509C57.7721 20.2646 56.1955 18.9224 56.1955 16.4841C56.173 15.8456 56.3072 15.2113 56.5862 14.6373C56.8653 14.0633 57.2806 13.5671 57.7956 13.1927C58.8667 12.3631 60.2264 11.9483 61.8745 11.9483C63.3273 11.9108 64.7571 12.319 65.9735 13.1185V16.2177C64.8651 15.231 63.4284 14.699 61.9483 14.7271C60.2275 14.7271 59.2312 15.4353 59.2312 16.4841C59.134 17.0439 59.6438 17.5329 60.0564 17.9005C60.447 18.164 60.8614 18.3898 61.2942 18.575L62.0959 18.9426C62.4816 19.1112 62.7667 19.209 62.8707 19.2798C64.4976 19.988 65.6615 20.7434 66.3894 21.5494C67.1409 22.4188 67.5312 23.5453 67.4796 24.6958C67.4903 25.3596 67.3509 26.0171 67.072 26.6188C66.7931 27.2206 66.3819 27.7507 65.8695 28.1694C64.8028 29.0698 63.2967 29.5352 61.3814 29.5352C59.3621 29.5755 57.3824 28.9684 55.7293 27.8018L55.736 24.534Z" fill="white"/>
<path d="M75.3422 29.2418V14.9969H70.7568V12.2417H82.9767V14.9969H78.3746V29.2418H75.3422Z" fill="white"/>
<path d="M87.5117 29.2418V12.2417H98.2859V14.9969H90.5474V19.0437H97.7995V21.799H90.5474V26.4832H98.4536V29.2384L87.5117 29.2418Z" fill="white"/>
<path d="M104.109 29.2418V12.2417H110.684C111.402 12.2246 112.116 12.3542 112.783 12.6225C113.45 12.8909 114.056 13.2925 114.564 13.8031C115.088 14.288 115.503 14.879 115.782 15.5371C116.061 16.1951 116.198 16.9053 116.185 17.6206C116.208 18.6424 115.928 19.648 115.379 20.5084C114.831 21.3689 114.039 22.0449 113.105 22.4498L117.191 29.2418H113.77L110.147 23.1917H107.128V29.2418H104.109ZM107.128 20.4736H110.355C110.724 20.4928 111.093 20.4341 111.438 20.3016C111.783 20.169 112.097 19.9654 112.36 19.7038C112.622 19.4422 112.827 19.1284 112.962 18.7824C113.097 18.4364 113.158 18.066 113.142 17.6948C113.142 16.1334 112.052 14.9969 110.596 14.9969H107.151L107.128 20.4736Z" fill="white"/>
<path d="M121.981 29.2418V12.2417H125V26.4866H131.709V29.2418H121.981Z" fill="white"/>
<path d="M136.462 29.2418V12.2417H139.481V29.2418H136.462Z" fill="white"/>
<path d="M145.81 29.2418V11.6077L157.336 22.9726V12.2417H160.355V29.8758L148.829 18.5581V29.2418H145.81Z" fill="white"/>
<path d="M181.004 14.5079L178.991 16.3627C178.426 15.8144 177.757 15.3851 177.025 15.1002C176.292 14.8152 175.51 14.6804 174.725 14.7035C173.762 14.7246 172.818 14.9782 171.974 15.4429C171.129 15.9075 170.408 16.5697 169.871 17.3734C169.334 18.1772 168.997 19.0989 168.889 20.061C168.781 21.023 168.905 21.997 169.25 22.9009C169.595 23.8048 170.151 24.612 170.871 25.2545C171.592 25.8969 172.455 26.3558 173.389 26.5923C174.323 26.8288 175.299 26.836 176.236 26.6133C177.174 26.3907 178.044 25.9447 178.773 25.313V22.1935H174.077V19.4956H181.648V26.3483C180.832 27.2896 179.836 28.0565 178.72 28.6035C177.603 29.1505 176.389 29.4664 175.149 29.5325C173.909 29.5985 172.668 29.4134 171.5 28.988C170.333 28.5627 169.262 27.9059 168.351 27.0565C167.528 26.2307 166.875 25.2499 166.43 24.1701C165.984 23.0903 165.755 21.9327 165.755 20.7636C165.755 19.5946 165.984 18.437 166.43 17.3572C166.875 16.2774 167.528 15.2965 168.351 14.4708C169.196 13.6493 170.194 13.0043 171.288 12.573C172.382 12.1418 173.55 11.9329 174.725 11.9584C175.889 11.9299 177.047 12.1413 178.127 12.5798C179.207 13.0183 180.186 13.6745 181.004 14.5079Z" fill="white"/>
<path d="M195.699 29.2418V12.2417H201.11C201.761 12.2245 202.408 12.341 203.013 12.584C203.617 12.8269 204.166 13.1912 204.625 13.6547C205.092 14.1042 205.46 14.6464 205.706 15.2467C205.953 15.8471 206.073 16.4924 206.058 17.1417C206.087 18.1891 205.78 19.218 205.181 20.0755C204.582 20.9329 203.724 21.5729 202.734 21.9001L206.836 29.2418H205.451L201.472 22.0958C201.303 22.1195 201.133 22.1274 200.962 22.1194H196.961V29.2418H195.699ZM196.961 20.9491H200.986C201.487 20.9634 201.986 20.8758 202.453 20.6915C202.92 20.5072 203.345 20.2301 203.703 19.8767C204.061 19.5199 204.342 19.0931 204.53 18.6227C204.717 18.1523 204.807 17.6483 204.793 17.1417C204.802 16.6466 204.711 16.1549 204.525 15.6961C204.34 15.2374 204.064 14.8212 203.714 14.4726C203.364 14.1241 202.948 13.8504 202.49 13.6681C202.032 13.4857 201.542 13.3986 201.05 13.4119H196.951L196.961 20.9491Z" fill="white"/>
<path d="M225.939 14.4843C227.148 15.7149 227.967 17.2774 228.295 18.9752C228.623 20.673 228.443 22.4304 227.78 24.0261C227.117 25.6219 225.999 26.9848 224.567 27.9433C223.135 28.9019 221.453 29.4134 219.733 29.4134C218.013 29.4134 216.331 28.9019 214.899 27.9433C213.468 26.9848 212.35 25.6219 211.686 24.0261C211.023 22.4304 210.844 20.673 211.172 18.9752C211.499 17.2774 212.319 15.7149 213.528 14.4843C215.187 12.8546 217.414 11.9421 219.733 11.9421C222.053 11.9421 224.28 12.8546 225.939 14.4843ZM225.067 26.1696C226.437 24.7026 227.2 22.7659 227.2 20.7535C227.2 18.7412 226.437 16.8044 225.067 15.3375C223.647 13.9305 221.734 13.1417 219.74 13.1417C217.746 13.1417 215.833 13.9305 214.413 15.3375C213.335 16.3934 212.596 17.75 212.291 19.2323C211.987 20.7146 212.131 22.2546 212.705 23.6537C213.28 25.0528 214.258 26.2468 215.513 27.0817C216.769 27.9167 218.245 28.3542 219.75 28.338C220.737 28.3644 221.719 28.1853 222.634 27.8122C223.549 27.439 224.377 26.8798 225.067 26.1696Z" fill="white"/>
<path d="M239.155 11.7763L246.457 29.2418H245.169L243.231 24.6081H235.079L233.137 29.2418H231.849L239.155 11.7763ZM235.599 23.4379H242.734L239.168 14.8013L235.599 23.4379Z" fill="white"/>
<path d="M251.647 29.2418V12.2417H256.765C259.449 12.2417 261.569 13.0207 263.139 14.5821C264.708 16.1435 265.487 18.1905 265.487 20.7535C265.487 23.3165 264.708 25.3636 263.139 26.925C261.569 28.4864 259.476 29.2418 256.782 29.2418H251.647ZM252.908 28.0716H256.691C259.093 28.0716 260.938 27.3971 262.25 26.0954C263.561 24.7936 264.215 22.9725 264.215 20.7535C264.215 18.5345 263.544 16.7539 262.223 15.4117C260.901 14.0695 259.07 13.4119 256.668 13.4119H252.908V28.0716Z" fill="white"/>
</g>
<defs>
<clipPath id="clip0_1013_3237">
<rect width="265" height="36" fill="white" transform="translate(0.5)"/>
</clipPath>
</defs>
</svg>
